<?xml version="1.0" encoding="utf-8"?>
<!-- Generator: Adobe Illustrator 19.2.0, SVG Export Plug-In . SVG Version: 6.00 Build 0)  -->
<svg version="1.1" id="Layer_1" xmlns="http://www.w3.org/2000/svg" xmlns:xlink="http://www.w3.org/1999/xlink" x="0px" y="0px"
	 viewBox="0 0 922.5 134.7" style="enable-background:new 0 0 922.5 134.7;" xml:space="preserve">
<style type="text/css">
	.st0{fill:#807B72;}
</style>
<g>
	<path class="st0" d="M57.2,133.5c-22,0-56.6,0-56.6,0V2.1c0,0,31.7,0,51.3,0c17.1,0,30.4,15,30.4,32.8c0,12.3-4.9,22.7-15.9,27.3
		v0.3c12.8,0.3,27.5,15.9,27.5,32.7C94.1,118.3,75.9,133.5,57.2,133.5z M42.7,22.8c-6.6,0-17.7,0-17.7,0V55c0,0,11.2,0,17.4,0
		c8.4,0,14.8-6.8,14.8-17.1C57.2,30.1,51.2,22.8,42.7,22.8z M49.4,75.6c-6.6,0-24.4,0-24.4,0v37.7c0,0,17.9,0,24.2,0
		c9.1,0,18.7-5.5,18.7-19C67.9,81.6,58,75.6,49.4,75.6z"/>
	<path class="st0" d="M211.1,133.5l-39-56.1v56.1h-24.5V2.1c0,0,28.8,0,45.2,0c21.6,0,39.4,15.4,39.4,39.4c0,21.1-15.4,33-32,36.3
		c2.6,3.4,41.6,55.6,41.6,55.6h-30.6v0.1L211.1,133.5L211.1,133.5z M185.6,22.5c-6.8,0-13.2,0-13.2,0v40c0,0,9.1,0,15.3,0
		c8.4,0,19-5.7,19-20.8C206.6,27.3,196.7,22.5,185.6,22.5z"/>
	<path class="st0" d="M295,133.5V2.1h24.9v131.4H295L295,133.5z"/>
	<path class="st0" d="M428,25v108.4h-25.1V25h-27V2.1h78.7V25H428z"/>
	<path class="st0" d="M715.1,134.8c-35.8,0-63.4-30.4-63.4-66.3c0-36.6,28.3-68.3,65-68.3c15.9,0,32.2,8.1,32.2,8.1v27.6
		c0,0-11.9-12.1-32.2-12.1c-22.7,0-39.8,20.2-39.8,42.7c0,23.4,16.3,44.7,39.8,44.7c13.8,0,23.6-5.5,33-12.1c0,0,0,18.4,0,26.5
		C745.9,128.5,731.9,134.8,715.1,134.8z"/>
	<path class="st0" d="M854.5,134.1c-36.9,0-66.2-30.2-66.2-67.1c0-38.2,29.7-67.1,66.5-67.1c37,0,67.1,29.9,67.1,67.1
		C922,104.2,891.4,134.1,854.5,134.1z M854.7,23.8c-24.4,0-41.9,18.4-41.9,43.6c0,24.5,17.9,43.2,41.9,43.2
		c24.4,0,42.6-19.5,42.6-43.2C897.1,41.8,878.9,23.8,854.7,23.8z"/>
	<polygon class="st0" points="601.4,81 601.4,56.1 563,56.1 563,17.6 538,17.6 538,56.1 499.6,56.1 499.6,81 538,81 538,119.5 
		563,119.5 563,81 	"/>
</g>
</svg>
