<svg enable-background="new 0 0 792 62" viewBox="0 0 792 62" xmlns="http://www.w3.org/2000/svg"><path d="m31.2 60.2h-31.2v-58.4h31.9c25.2 0 37.1 7.9 37.1 28.6 0 21.3-12.2 29.8-37.8 29.8zm0-46.2h-16.7v34.4h16.5c15.2 0 23.1-3.6 23.1-17.3 0-12.8-7.2-17.1-22.9-17.1zm40.4 46.2 25.7-58.4h24.4l25.3 58.5h-15.9l-6.6-15.5h-30.6l-6.4 15.5zm48.1-26.8-10.4-24.8-10.6 24.8zm88.1 4.8h-28.9v-11.5h42.2v33.6h-14v-17.2h-.2c-3 10.8-9.3 17.9-26.3 17.9-19.5 0-30.4-9.9-30.4-28.6 0-20.2 14.4-31.5 43.6-31.5 10.4 0 18.3 1.1 27.3 2.9v13.2c-8.5-2.1-15.9-3.1-26.3-3.1-20.4 0-29.3 6.2-29.3 18.2 0 11.6 6.6 16.4 18.8 16.4 12.1 0 20.1-2.8 22.9-9zm98.1 22h-26.4l-30.3-51v51.1h-14.3v-58.5h26.4l30.4 51.9v-51.9h14.3zm28.7-35h47v12h-47v10.8h47v12.3h-60.6v-58.5h60.6v12.2h-47zm111.9 35h-31.2v-58.4h31.9c25.1 0 37.1 7.9 37.1 28.7 0 21.2-12.2 29.7-37.8 29.7zm0-46.2h-16.7v34.4h16.5c15.2 0 23.1-3.6 23.1-17.3 0-12.8-7.2-17.1-22.9-17.1zm85.2-13.1c24 0 37.2 10.6 37.2 30 0 19.2-13 30.1-37.2 30.1s-37.3-10.9-37.3-30.1c0-19.3 13.3-30 37.3-30zm0 12.6c-15 0-22.6 6.1-22.6 17.4 0 11.5 7.5 17.6 22.6 17.6s22.6-6.2 22.6-17.6c0-11.3-7.6-17.4-22.6-17.4zm89.3 46.7h-25l-25.5-58.4h16.4l21.4 52.4 21.9-52.4h15.7zm46.6-35h46.9v12h-46.9v10.8h46.9v12.3h-60.5v-58.5h60.5v12.2h-46.9zm124 35h-14.1l-1.1-11.9c-.6-6.5-2.4-7.9-10.1-7.9h-24.3v19.8h-14.3v-58.4h40.4c17.3 0 23.9 4.6 23.9 13.9 0 7.7-5.6 12.1-15.4 13.7v.2c8.2.2 12.3 3.6 13.2 12.9zm-27.2-46.3h-22.5v15.2h22.5c10.1 0 13.4-2.3 13.4-7.7 0-5.5-3.6-7.5-13.4-7.5z" fill="#333"/></svg>