<svg height="25" viewBox="0 0 25 25" width="25" xmlns="http://www.w3.org/2000/svg"><g fill="none" fill-rule="evenodd"><path d="m17.1547327 23.9980435h-10.17481815c-3.5593091 0-6.44387273-2.9228261-6.44387273-6.5293478v-10.39673918c0-3.60543478 2.88456363-6.52826087 6.44387273-6.52826087h10.17481815c3.5582364 0 6.4428 2.92282609 6.4428 6.52826087v10.39673918c0 3.6065217-2.8845636 6.5293478-6.4428 6.5293478z" stroke="#333"/><path d="m17.2731618 12.2708696c0 2.9130434-2.3310363 5.275-5.2070182 5.275-2.87383633 0-5.20487269-2.3619566-5.20487269-5.275 0-2.91304351 2.33103636-5.27500003 5.20487269-5.27500003 2.8759819 0 5.2070182 2.36195652 5.2070182 5.27500003z" stroke="#333"/><path d="m19.8972673 5.86217391c0 .77065218-.6157455 1.39565218-1.3763091 1.39565218-.7605637 0-1.3763091-.625-1.3763091-1.39565218 0-.77065217.6157454-1.39456521 1.3763091-1.39456521.7605636 0 1.3763091.62391304 1.3763091 1.39456521" fill="#333"/></g></svg>