<svg height="22" viewBox="0 0 26 22" width="26" xmlns="http://www.w3.org/2000/svg"><path d="m125.821988 5.16246876c1.048235-.62526438 1.852964-1.61430495 2.231751-2.79330898-.980208.57835031-2.067094.99826956-3.222781 1.22514901-.926095-.98134974-2.244892-1.59430879-3.704381-1.59430879-2.803022 0-5.074971 2.26033455-5.074971 5.04902903 0 .3953086.044836.78061911.131416 1.15054797-4.218448-.2107287-7.957616-2.22111132-10.460701-5.27590847-.436765.74601038-.687228 1.61353585-.687228 2.53874254 0 1.7512017.895947 3.29705826 2.257261 4.2022688-.831785-.02614882-1.614096-.25302826-2.298232-.63141704-.000773.02153432-.000773.04229956-.000773.06383388 0 2.44645259 1.749377 4.48682949 4.071572 4.95058639-.425942.1153625-.874301.1768891-1.337349.1768891-.326994 0-.644711-.0315324-.954698-.0899827.645484 2.0057681 2.520093 3.4654874 4.74102 3.5062488-1.737008 1.3543549-3.925468 2.1611229-6.303322 2.1611229-.409708 0-.813232-.0238416-1.210572-.0699866 2.245665 1.4320323 4.913407 2.2680254 7.779818 2.2680254 9.335164 0 14.43951-7.693905 14.43951-14.3656989 0-.21918862-.004638-.43683907-.014688-.65372044.991804-.71140166 1.852191-1.60046145 2.532461-2.61334359-.909861.40146126-1.888523.67294751-2.915113.79523169z" fill="none" stroke="#333" stroke-linecap="round" stroke-linejoin="round" transform="translate(-104 -1)"/></svg>