<svg height="24" viewBox="0 0 19 24" width="19" xmlns="http://www.w3.org/2000/svg"><path d="m170.281474 16.8991806c-1.373078 0-2.665875-.7370025-3.107419-1.5757555 0 0-.739137 2.9122602-.894162 3.4746372-.550892 1.9855069-2.171733 3.9723889-2.297691 4.1346394-.087201.1141254-.280982.0783753-.301744-.0715002-.034604-.2530009-.448465-2.7596347.038756-4.8028918.24361-1.0257536 1.636066-6.8860241 1.636066-6.8860241s-.405556-.8071278-.405556-1.999257c0-1.87275655 1.092095-3.27113645 2.452716-3.27113645 1.15715 0 1.714963.86350302 1.714963 1.89750664 0 1.15500404-.740521 2.88338511-1.122547 4.48389071-.319739 1.3406297.67685 2.4337585 2.008403 2.4337585 2.408423 0 4.032032-3.0745108 4.032032-6.71827351 0-2.76925969-1.876909-4.84276695-5.292993-4.84276695-3.857629 0-6.263284 2.85863501-6.263284 6.05277118 0 1.10000388.328044 1.87688158.84018 2.47775868.235306.276376.268525.3877514.182708.7040025-.062287.2337508-.200702.7920027-.26022 1.0147535-.084434.3203761-.344654.4345015-.63671.3162511-1.775866-.7205025-2.604972-2.6551343-2.604972-4.82764188 0-3.59013756 3.047901-7.89390262 9.091104-7.89390262 4.85837 0 8.054374 3.48976221 8.054374 7.23940033 0 4.95689237-2.775222 8.65978027-6.864004 8.65978027" fill="none" stroke="#333" transform="translate(-159)"/></svg>