<svg id="Layer_1" data-name="Layer 1" xmlns="http://www.w3.org/2000/svg" viewBox="0 0 282.61 113.32"><defs><style>.cls-1{fill:#807b72;}</style></defs><title>people-magazine-logo</title><path class="cls-1" d="M285.35,63.94c0.3-6.7.66-17-4.33-26.83A24.29,24.29,0,0,0,258.8,23.48c-10.56,0-23.1,7.19-25.55,29.67V2.41H206.36l0,12.51c4.53,0,7.3,2.31,7.31,6.84V53.13c-2.93-23.56-14.34-29.75-19.91-29.72a13.45,13.45,0,0,0-13.18,10V24.86H157.5v13.3C153.83,27.38,142.55,23.38,136,23.41c-3.68,0-19.39,1.63-24,22.94-4.26-28-29.72-25.89-40.46-16.54-0.57-7.05-2-16.57-9-22.11-3.81-3-9.46-5.42-17.4-5.42H2.92v15c7.34,0.06,7.6,7.05,7.6,8.12V70.61c0,5.1-1.94,8.42-7.63,8.47V94H42V78.76c-5.69,0-7.57-3.09-7.56-8.19V57.9H41c7.92-.3,14.59.66,21.79-7.06-0.2,2.13-.78,6.47-0.78,8.7-0.27,11.09,1,21.38,7.71,28.18a25.65,25.65,0,0,0,17.94,8c6.19,0.09,20.29-1.08,24-22.29,0.86,2.86,5.4,22.32,25.45,22.32,20.24,0,24.47-18.43,25.48-24.13V94.25c0,6-4.48,8.74-7.24,8.83v12.51h32.91v-12.5c-3.65-.5-7.08-3.9-7.14-9.28l-0.27-8.67a16.27,16.27,0,0,0,13.83,10.59c3.79,0,12.42-2.08,14.88-17.17V94h28.2V78.72c3.58,23.45,44.48,23.21,46.93-6.36H265.34c-0.72,4.24-2.59,7.61-6.14,7.6-4.35,0-6.18-5-6.45-10.58a49.09,49.09,0,0,1-.11-5.43h32.71ZM40,40.83H34.48V19.62H40c4.27,0,6.7,3.59,6.7,10.49C46.65,37.7,44.93,40.69,40,40.83Zm41.66,8.9c0.27-5.56,2.24-10.89,6.6-10.87s6.05,5.31,6.33,10.87a16.76,16.76,0,0,1,0,3.39H81.61A16.76,16.76,0,0,1,81.61,49.73ZM94.48,72.4C93.75,76.64,91.88,80,88.33,80c-4.36,0-6.19-5-6.46-10.58a50,50,0,0,1-.11-5.43h28.7a37.33,37.33,0,0,0,1.05,8.45h-17Zm42.71,7.7c-5.09-.07-7.11-9.14-7.11-20.42s2.17-20.48,7.11-20.42,7.12,9.14,7.12,20.42S142.41,80.17,137.19,80.1Zm50-.18c-4,0-5.37-4.31-5.37-10V49c-0.21-7.09,1.86-10.53,5.9-10.35s6.57,5.52,6.57,21.06C194.28,73.9,191.63,79.93,187.18,79.93Zm65.42-30.19c0.28-5.56,2.11-10.48,6.47-10.46s6.19,4.9,6.47,10.46a17.44,17.44,0,0,1,0,3.39H252.61A17.52,17.52,0,0,1,252.61,49.73Z" transform="translate(-2.89 -2.27)"/></svg>