<svg id="svg2" xmlns="http://www.w3.org/2000/svg" viewBox="0 0 1543.93 409.82"><title>VOGUE.es_LOGO</title>
<style type="text/css">
	.st0{fill:#807B72;}
</style>
<g id="layer1">
<g id="g3846">
<g id="g3863">
<path class="st0" id="path3064" d="M454.47,11.69C365.65,12.33,293,111,293,197.15c0,90.61,53.26,201.14,161.47,200.78S618.85,278.58,618.85,197.15C618.85,107.21,543.29,11.06,454.47,11.69Zm0,3.38c74.34,0,94.39,82.1,94.39,182.08,0,131.92-24.19,197-94.39,196.87s-93-53.39-93-196.87C361.43,107.27,380.13,15.07,454.47,15.07Z"/><path class="st0"  id="path3060" d="M648.18,199.58c-0.4-98,78-184.76,144.39-189.06,24-1.7,54.8,9.28,72.79,17.1C878.42,33.3,905.1,25.08,909.83,10h2.58V143.46h-2.58c0-5.69-24.72-129.58-117.26-129.58-68.36,0-75,120.2-75,185.71s2,195.2,81.76,195.2c38.64,0,67.25-16.91,74.66-51.11v-104H841.6v-4.43H967.32v4.43h-31v152h-2.53s-5-21.94-30.62-21.86C870.47,370,839.63,398.36,802,398c-99.41-.91-153.47-100.45-153.87-198.43h0Z"/><path class="st0"  id="path3058" d="M49.15,24.84H10v-4.4H147.14v4.4h-34.4l98,266.1C241.36,196.61,265.1,126.88,297,24.84H263v-4.4h72.41v4.4h-33L183.35,396.1Z"/><path class="st0"  id="path3054" d="M986.52,305.21L985.9,24.41H948.64V20.21h137.28v4.21h-37.24l0.83,307.88c8.24,35.25,22.9,62,73,62.4s84.12-29.62,96.77-70.65V24.41h-42.63V20.33h348.89l0.73,134.79h-3.35c-6.47-87-40.05-119.92-98.78-129.52-20.21-3.3-41.41-.85-68.21-1.06v172c23.34,1.8,48.2.33,65-14.06,15.23-13.09,19.54-43.32,20.66-55.6h3V276.7h-3.19c-0.92,0-2.15-37.59-20.42-55.42s-41.81-22.36-65-18.09V387c32.69,0,58.75,2.77,81.38-3.44,68.79-18.86,93-76.89,92.82-135.1h3.83V391.31H1260.27V387h30.94V24.41h-66.85V324c-7.58,28.67-35.27,76.1-106.25,75.77-66-.3-131.44-30.05-131.58-94.61h0Z"/></g></g></g><path class="st0"  d="M384.14,187.93H403.2V198h-1.3c-0.05-1.3-.27-4.64-2.81-6.91-2.21-2.05-4.86-2.05-7.45-2.05v16.69c1.51,0,3.13-.05,4.43-1.24,1.67-1.57,1.78-4.1,1.89-5.94h1.3v15.5H398a10.48,10.48,0,0,0-.76-4c-1.3-3-3.83-3-5.56-3.08v18c2.48-.05,5.29-0.05,7.56-2,2.65-2.32,3.19-5.94,3.51-8.48H404l-0.49,11.61H384.14V225h2.48V189.06h-2.48v-1.13Z"/><path class="st0"  d="M410.81,213.2c0.38,3,.7,5.89,2.54,8.64,1.62,2.48,3.46,3.29,5.24,3.29,3.4,0,5.4-2.92,5.4-6.48,0-4.54-3-6.86-7.67-10.37-3.4-2.59-6.86-5.24-6.86-11.18,0-4.81,3.24-9.61,8-9.61a5.94,5.94,0,0,1,5.4,2.92L424.1,188h1.13l0.22,11.12H424.1c-0.65-3.67-1.78-10.15-6.53-10.15-2.65,0-4.81,2.11-4.81,5.4,0,3.51,1.67,4.91,7,9,4,3.08,7.29,5.67,7.29,11.93,0,5.67-3,11.34-8.48,11.34a7.89,7.89,0,0,1-6.48-3.56l-1.51,3h-1.13V213.2h1.35Z"/><path class="st0"  d="M430.69,187.93h8.59c3.51,0,6.53.38,8.42,1.73a9.35,9.35,0,0,1,3.78,7.78,12,12,0,0,1-1.51,5.94c-2.92,4.91-8,5-11.77,5V225h2.65v1.13H430.69V225h2.54V189.06h-2.54v-1.13Zm7.51,19.17c3,0,5.45,0,6.86-3a15.15,15.15,0,0,0,1-6c0-8.15-2.54-9-7.88-9.07v18Z"/><path class="st0"  d="M461.31,188h2l8.42,37h2.54v1.13H464V225h2.65l-2.11-9.13h-8.37l-1.46,6.37a7.29,7.29,0,0,0-.27,1.57c0,1.24,1,1.24,2.38,1.19v1.13h-7.4V225c2.59,0,3.19-.38,3.89-3.35Zm-0.86,9.18-4.05,17.5h7.88Z"/><path class="st0"  d="M477.78,187.93H486l12.1,29.92V191.49c0-2.38-.86-2.43-2.86-2.43v-1.13h7v1.13c-1.94,0-2.86,0-2.81,2.32v34.72H496l-14-34.56v30.83c0,2.27.32,2.65,2.86,2.59v1.13h-7.07V225c2.27,0.05,2.86-.27,2.86-2.54V191c0-2-.92-1.94-2.86-1.94v-1.13Z"/><path class="st0"  d="M513.53,188h2l8.42,37h2.54v1.13H516.17V225h2.65l-2.11-9.13h-8.37l-1.46,6.37a7.29,7.29,0,0,0-.27,1.57c0,1.24,1,1.24,2.38,1.19v1.13h-7.4V225c2.59,0,3.19-.38,3.89-3.35Zm-0.86,9.18-4.05,17.5h7.88Z"/><path class="st0"  d="M483.46,184.67s2.54-6.83,10.06-.4c1.56,1.33,5.31,4.32,10.06,3.23v0.92s-3.3,4.63-8.31.65c-4.11-3.26-6.4-8.23-11.82-4.4h0Z"/></svg>
